<svg width="16" height="16" viewBox="0 0 16 16" fill="none" xmlns="http://www.w3.org/2000/svg">
<path d="M7.38174 1.75533C7.59507 1.19267 8.40241 1.19267 8.61641 1.75533L9.99641 5.578C10.0931 5.83133 10.3391 6 10.6137 6H14.0051C14.6317 6 14.9051 6.78 14.4124 7.162L11.9991 9.33333C11.891 9.41644 11.812 9.53165 11.7734 9.66244C11.7348 9.79323 11.7387 9.93287 11.7844 10.0613L12.6657 13.7967C12.8804 14.3967 12.1857 14.912 11.6604 14.5427L8.38241 12.4627C8.27015 12.3838 8.13628 12.3414 7.99907 12.3414C7.86187 12.3414 7.728 12.3838 7.61574 12.4627L4.33774 14.5427C3.81307 14.912 3.11774 14.396 3.33241 13.7967L4.21374 10.0613C4.25946 9.93287 4.26331 9.79323 4.22475 9.66244C4.18618 9.53165 4.10718 9.41644 3.99907 9.33333L1.58574 7.162C1.09241 6.78 1.36707 6 1.99241 6H5.38374C5.51727 6.00044 5.64778 5.96034 5.75802 5.88498C5.86825 5.80963 5.95301 5.70258 6.00107 5.578L7.38107 1.75533H7.38174Z" stroke="#C4CDD5" stroke-width="0.5" stroke-linecap="round" stroke-linejoin="round"/>
</svg>
